<svg width="24" height="24" viewBox="0 0 24 24" fill="none" xmlns="http://www.w3.org/2000/svg">
<path d="M4.8071 7C4.11546 7 3.54297 7.56609 3.54297 8.25V11.4643V15.75C3.54297 16.4339 4.11546 17 4.8071 17H8.7801C10.4692 17 11.8501 15.6345 11.8501 13.9643C11.8501 12.9084 11.265 12.0197 10.4322 11.4754C11.0561 11.0189 11.489 10.3214 11.489 9.5C11.489 8.12557 10.3507 7 8.96069 7H4.8071ZM14.9244 7.71429C14.6254 7.71429 14.3826 7.95429 14.3826 8.25C14.3826 8.54571 14.6254 8.78571 14.9244 8.78571H17.8139C18.1133 8.78571 18.3556 8.54571 18.3556 8.25C18.3556 7.95429 18.1129 7.71429 17.8139 7.71429H14.9244ZM4.8071 8.07143H8.96069C9.76526 8.07143 10.4054 8.70443 10.4054 9.5C10.4054 10.2956 9.76526 10.9286 8.96069 10.9286H8.7801H4.62651V8.25C4.62651 8.14463 4.70054 8.07143 4.8071 8.07143ZM16.1829 9.5C14.2554 9.5 12.7341 11.0831 12.6155 13.024C12.582 13.095 12.5646 13.1724 12.5646 13.2507C12.5646 13.329 12.582 13.4064 12.6155 13.4774C12.7348 15.4177 14.2561 17 16.1829 17C17.4414 17 18.6845 16.3666 19.351 15.3231C19.3907 15.2637 19.418 15.197 19.4314 15.1269C19.4447 15.0569 19.4438 14.985 19.4287 14.9153C19.4135 14.8457 19.3845 14.7797 19.3433 14.7212C19.302 14.6628 19.2494 14.6131 19.1885 14.575C19.1276 14.5369 19.0597 14.5112 18.9886 14.4994C18.9176 14.4876 18.8448 14.49 18.7747 14.5063C18.7046 14.5226 18.6384 14.5526 18.5802 14.5946C18.5219 14.6365 18.4727 14.6895 18.4354 14.7504C18.001 15.4305 17.0532 15.9286 16.1829 15.9286C14.9739 15.9286 13.9982 15.0121 13.7569 13.7857H18.8875C19.4192 13.7857 19.8492 13.3151 19.787 12.7889V12.7882C19.5692 10.9471 18.0358 9.5 16.1829 9.5ZM16.1829 10.5714C17.3948 10.5714 18.409 11.4876 18.6505 12.7143H13.7569C13.9981 11.4879 14.9736 10.5714 16.1829 10.5714ZM4.62651 12H8.7801C9.88363 12 10.7666 12.8731 10.7666 13.9643C10.7666 15.0555 9.88363 15.9286 8.7801 15.9286H4.8071C4.70054 15.9286 4.62651 15.8554 4.62651 15.75V12Z" fill="#1769FF"/>
<rect x="1" y="1" width="22" height="22" rx="5" stroke="#1769FF" stroke-width="2"/>
</svg>
