<svg width="24" height="24" viewBox="0 0 24 24" fill="none" xmlns="http://www.w3.org/2000/svg">
<path d="M21.8811 2H2.11853C0.950325 2 0 2.90078 0 4.00815V16.9919C0 18.0992 0.950325 19.2851 2.11853 19.2851H8.91101C9.11831 19.2851 9.28601 18.841 9.28601 18.6445C9.28601 18.4481 9.11831 17.877 8.91101 17.877H2.11853C1.3638 17.877 1.5 17.7154 1.5 17V10.5V4C1.5 3.28456 1.3638 3.27889 2.11853 3.27889H21.8811C22.6359 3.27889 22.5 3.28456 22.5 4V16.9919C22.5 17.7073 22.2548 18 21.5 18C21.2927 18 21.2332 18.5343 21.5 19C21.5 19.1965 21.6738 19 21.8811 19C23.0493 19 24 18.0992 24 16.9919V4.00815C24 2.90078 23.0493 2 21.8811 2Z" fill="#828282"/>
<path d="M8.57143 12H3.42857C3.1917 12 3 12.2236 3 12.5C3 12.7763 3.1917 13 3.42857 13H8.57143C8.80834 13 9 12.7763 9 12.5C9 12.2236 8.80834 12 8.57143 12Z" fill="#828282"/>
<path d="M8.57143 14H3.42857C3.1917 14 3 14.2236 3 14.5C3 14.7763 3.1917 15 3.42857 15H8.57143C8.80834 15 9 14.7763 9 14.5C9 14.2236 8.80834 14 8.57143 14Z" fill="#828282"/>
<path d="M19.3423 15.8062C19.3351 15.7808 19.3193 15.7615 19.3079 15.7389C20.1237 14.8106 20.6246 13.5857 20.6246 12.2379C20.6246 9.34507 18.3372 7 15.5155 7C12.6938 7 10.4064 9.34507 10.4064 12.2379C10.4064 13.5709 10.8962 14.7837 11.6961 15.7083C11.6878 15.7266 11.6748 15.7414 11.6691 15.7614L10.0158 21.5729C9.97237 21.7255 10.0204 21.8896 10.1382 21.9927C10.256 22.0958 10.4218 22.1175 10.5615 22.0498L12.297 21.2046L13.3874 22.8257C13.4615 22.9359 13.5831 23 13.7109 23C13.7332 23 13.7554 22.998 13.7777 22.9941C13.9289 22.9673 14.051 22.8532 14.0905 22.7014L15.4569 17.4727C15.4766 17.4729 15.4957 17.4757 15.5155 17.4757C15.5249 17.4757 15.5339 17.4743 15.5432 17.4743L16.9098 22.7014C16.9494 22.8529 17.071 22.967 17.2219 22.9941C17.2445 22.998 17.2672 23 17.2894 23C17.4168 23 17.5377 22.9367 17.6122 22.8273L18.706 21.2141L20.4396 22.0505C20.5789 22.1175 20.7443 22.095 20.8625 21.9919C20.98 21.8888 21.0276 21.7251 20.9842 21.5729L19.3423 15.8062ZM15.5155 7.80582C17.8993 7.80582 19.8386 9.79399 19.8386 12.2379C19.8386 14.6817 17.8993 16.6699 15.5155 16.6699C13.1318 16.6699 11.1924 14.6817 11.1924 12.2379C11.1924 9.79399 13.1318 7.80582 15.5155 7.80582ZM13.5517 21.6504L12.7541 20.4649C12.6447 20.3024 12.4371 20.2441 12.2621 20.3295L11.0155 20.9366L12.3271 16.3267C12.9904 16.8711 13.7891 17.2461 14.663 17.397L13.5517 21.6504ZM18.7401 20.3398C18.5663 20.2571 18.3594 20.313 18.25 20.4743L17.4498 21.6547L16.3379 17.4017C17.2123 17.2562 18.0116 16.8863 18.6775 16.347L19.9852 20.9406L18.7401 20.3398Z" fill="#828282"/>
<path d="M10 5C10 4.4477 9.5523 4 9 4H4C3.44775 4 3 4.4477 3 5V10C3 10.5522 3.44775 11 4 11H9C9.5523 11 10 10.5522 10 10V5ZM9 10H4V5H9V10Z" fill="#828282"/>
<path d="M15.5 15C16.8808 15 18 13.8807 18 12.5C18 11.1192 16.8808 10 15.5 10C14.1193 10 13 11.1192 13 12.5C13 13.8807 14.1193 15 15.5 15ZM15.5 10.8333C16.419 10.8333 17.1667 11.581 17.1667 12.5C17.1667 13.419 16.419 14.1667 15.5 14.1667C14.581 14.1667 13.8333 13.419 13.8333 12.5C13.8333 11.581 14.581 10.8333 15.5 10.8333Z" fill="#828282"/>
</svg>
