<svg width="25" height="24" viewBox="0 0 25 24" fill="none" xmlns="http://www.w3.org/2000/svg">
<path d="M12.5 20C16.6421 20 20 16.6421 20 12.5C20 8.35786 16.6421 5 12.5 5C8.35786 5 5 8.35786 5 12.5C5 16.6421 8.35786 20 12.5 20Z" stroke="#EA4C89" stroke-width="2" stroke-linecap="round" stroke-linejoin="round"/>
<path d="M9.92 5.5625C13.1975 10.085 14.435 12.6275 15.9425 18.8525M17.8475 7.3175C15.0575 10.58 11.1425 11.5625 5.1875 11.705M19.8125 13.13C17.1875 12.4325 14.84 12.515 13.1075 13.13C11.1725 13.82 9.35 15.275 7.5275 17.87" stroke="#EA4C89" stroke-width="2" stroke-linecap="round" stroke-linejoin="round"/>
<rect x="1.45703" y="1" width="22" height="22" rx="5" stroke="#EA4C89" stroke-width="2"/>
</svg>
