<svg width="25" height="24" viewBox="0 0 25 24" fill="none" xmlns="http://www.w3.org/2000/svg">
<path d="M10.3265 17.7172C6.52187 18.8586 6.52187 15.8149 5 15.4344M15.6531 20V17.0552C15.6816 16.6923 15.6326 16.3276 15.5093 15.9852C15.3859 15.6427 15.1911 15.3305 14.9378 15.0691C17.3271 14.8028 19.8382 13.8973 19.8382 9.74261C19.838 8.68022 19.4294 7.65856 18.6968 6.88911C19.0437 5.95963 19.0192 4.93225 18.6283 4.02039C18.6283 4.02039 17.7304 3.75406 15.6531 5.14657C13.909 4.67389 12.0706 4.67389 10.3265 5.14657C8.24919 3.75406 7.35129 4.02039 7.35129 4.02039C6.96045 4.93225 6.93593 5.95963 7.2828 6.88911C6.54479 7.66427 6.13571 8.69516 6.1414 9.76544C6.1414 13.8897 8.65248 14.7952 11.0418 15.092C10.7915 15.3507 10.5984 15.6592 10.4752 15.9974C10.3519 16.3357 10.3013 16.6961 10.3265 17.0552V20" stroke="#6E5494" stroke-width="2" stroke-linecap="round" stroke-linejoin="round"/>
<rect x="1.45703" y="1" width="22" height="22" rx="5" stroke="#6E5494" stroke-width="2"/>
</svg>
