<svg width="24" height="24" viewBox="0 0 24 24" fill="none" xmlns="http://www.w3.org/2000/svg">
<path d="M15.5175 5.14294H8.48306C6.54054 5.14294 4.96582 6.77391 4.96582 8.7858V16.0715C4.96582 18.0834 6.54054 19.7144 8.48306 19.7144H15.5175C17.4601 19.7144 19.0348 18.0834 19.0348 16.0715V8.7858C19.0348 6.77391 17.4601 5.14294 15.5175 5.14294Z" stroke="#C13584" stroke-width="2" stroke-linecap="round" stroke-linejoin="round"/>
<path d="M14.814 11.9697C14.9008 12.5761 14.8008 13.1953 14.5282 13.7394C14.2556 14.2835 13.8243 14.7248 13.2956 15.0003C12.767 15.2759 12.1679 15.3719 11.5836 15.2745C10.9992 15.1771 10.4594 14.8914 10.0409 14.4579C9.62244 14.0245 9.34656 13.4654 9.25254 12.8602C9.15851 12.255 9.25113 11.6345 9.51721 11.087C9.7833 10.5394 10.2093 10.0927 10.7346 9.81041C11.26 9.52809 11.8579 9.42452 12.4433 9.51444C13.0405 9.60615 13.5934 9.89436 14.0202 10.3365C14.4471 10.7786 14.7254 11.3512 14.814 11.9697Z" stroke="#C13584" stroke-width="2" stroke-linecap="round" stroke-linejoin="round"/>
<path d="M15.8691 8.42151H15.8762" stroke="#C13584" stroke-width="2" stroke-linecap="round" stroke-linejoin="round"/>
<rect x="1" y="1" width="22" height="22" rx="5" stroke="#C13584" stroke-width="2"/>
</svg>
