<svg width="24" height="24" viewBox="0 0 24 24" fill="none" xmlns="http://www.w3.org/2000/svg">
<path d="M15.3421 7.79999C16.5015 7.79999 17.6134 8.26055 18.4332 9.08035C19.253 9.90015 19.7136 11.012 19.7136 12.1714V17.2714H16.7993V12.1714C16.7993 11.785 16.6458 11.4143 16.3725 11.1411C16.0992 10.8678 15.7286 10.7143 15.3421 10.7143C14.9557 10.7143 14.585 10.8678 14.3118 11.1411C14.0385 11.4143 13.885 11.785 13.885 12.1714V17.2714H10.9707V12.1714C10.9707 11.012 11.4313 9.90015 12.2511 9.08035C13.0709 8.26055 14.1828 7.79999 15.3421 7.79999V7.79999Z" stroke="#00A0DC" stroke-width="2" stroke-linecap="round" stroke-linejoin="round"/>
<path d="M8.05686 8.52856H5.14258V17.2714H8.05686V8.52856Z" stroke="#00A0DC" stroke-width="2" stroke-linecap="round" stroke-linejoin="round"/>
<path d="M6.59972 6.34287C7.40448 6.34287 8.05686 5.69049 8.05686 4.88573C8.05686 4.08097 7.40448 3.42859 6.59972 3.42859C5.79496 3.42859 5.14258 4.08097 5.14258 4.88573C5.14258 5.69049 5.79496 6.34287 6.59972 6.34287Z" stroke="#00A0DC" stroke-width="2" stroke-linecap="round" stroke-linejoin="round"/>
<rect x="1" y="1" width="22" height="22" rx="5" stroke="#00A0DC" stroke-width="2"/>
</svg>
