<svg width="24" height="24" viewBox="0 0 24 24" fill="none" xmlns="http://www.w3.org/2000/svg">
<path d="M19.714 6.86384C19.0797 7.31123 18.3775 7.65342 17.6343 7.87721C17.2354 7.41855 16.7052 7.09347 16.1155 6.94592C15.5259 6.79837 14.9051 6.83549 14.3372 7.05224C13.7693 7.269 13.2817 7.65493 12.9403 8.15786C12.5989 8.66078 12.4201 9.25642 12.4283 9.86423V10.5266C11.2643 10.5567 10.111 10.2986 9.07091 9.77511C8.03086 9.25162 7.13642 8.47904 6.46725 7.52618C6.46725 7.52618 3.8179 13.4872 9.77894 16.1366C8.41488 17.0625 6.78992 17.5268 5.14258 17.4612C11.1036 20.7729 18.3893 17.4612 18.3893 9.84436C18.3887 9.65987 18.371 9.47583 18.3363 9.29462C19.0123 8.62797 19.4894 7.78628 19.714 6.86384V6.86384Z" stroke="#1DA1F2" stroke-width="2" stroke-linecap="round" stroke-linejoin="round"/>
<rect x="1" y="1" width="22" height="22" rx="5" stroke="#1DA1F2" stroke-width="2"/>
</svg>
