<svg width="1200" height="171" viewBox="0 0 1200 171" fill="none" xmlns="http://www.w3.org/2000/svg">
<g clip-path="url(#clip0_365_596)">
<path d="M1065.77 170.086H45.251C20.2983 170.086 0 149.788 0 124.835V45.251C0 20.2983 20.2983 0 45.251 0H68.8678C70.0601 0 71.0226 0.962482 71.0226 2.15481C71.0226 3.34714 70.0601 4.30962 68.8678 4.30962H45.251C22.683 4.30962 4.30962 22.683 4.30962 45.251V124.835C4.30962 147.403 22.683 165.777 45.251 165.777H1065.77C1066.96 165.777 1067.92 166.739 1067.92 167.932C1067.92 169.124 1066.96 170.086 1065.77 170.086Z" fill="#FF4D05"/>
<path d="M1154.75 170.086H1109.78C1108.59 170.086 1107.63 169.124 1107.63 167.932C1107.63 166.739 1108.59 165.777 1109.78 165.777H1154.75C1177.32 165.777 1195.69 147.403 1195.69 124.835V45.251C1195.69 22.683 1177.32 4.30962 1154.75 4.30962H116.546C115.354 4.30962 114.392 3.34714 114.392 2.15481C114.392 0.962482 115.354 0 116.546 0H1154.75C1179.7 0 1200 20.2983 1200 45.251V124.835C1200 149.788 1179.7 170.086 1154.75 170.086Z" fill="#9833FF"/>
</g>
<defs>
<clipPath id="clip0_365_596">
<rect width="1200" height="170.086" fill="white"/>
</clipPath>
</defs>
</svg>
