<svg width="364" height="364" viewBox="0 0 364 364" fill="none" xmlns="http://www.w3.org/2000/svg">
<g filter="url(#filter0_d_2585_1513)">
<path d="M218.539 66.2823L129.787 66.0982C103.604 66.0439 82.3348 87.2254 82.2805 113.408L82.0965 202.16C82.0422 228.343 103.224 249.613 129.407 249.667L218.158 249.851C244.341 249.905 265.611 228.724 265.665 202.541L265.849 113.789C265.904 87.6061 244.722 66.3366 218.539 66.2823Z" fill="white"/>
</g>
<path d="M122 126.557C122 122.823 122 120.956 122.738 119.534C123.36 118.337 124.337 117.36 125.534 116.738C126.956 116 128.823 116 132.557 116H160.113C161.701 116 162.496 116 163.245 116.178C163.882 116.33 164.492 116.576 165.056 116.909C165.719 117.3 166.291 117.851 167.436 118.953L168.113 119.605C169.257 120.706 169.829 121.257 170.492 121.648C171.056 121.981 171.667 122.227 172.304 122.379C173.053 122.557 173.847 122.557 175.436 122.557H203.244C206.978 122.557 208.845 122.557 210.266 123.295C211.464 123.918 212.44 124.894 213.062 126.092C213.801 127.513 213.801 129.38 213.801 133.114V195.965C213.801 197.832 213.801 198.766 213.432 199.476C213.121 200.075 212.632 200.563 212.033 200.874C211.323 201.243 210.389 201.243 208.522 201.243H131.501C128.141 201.243 126.46 201.243 125.181 200.579C124.103 200.019 123.224 199.14 122.664 198.062C122 196.783 122 195.103 122 191.742V126.557Z" fill="url(#paint0_linear_2585_1513)"/>
<g filter="url(#filter1_b_2585_1513)">
<path d="M146.307 145.573C147.234 142.383 147.697 140.789 148.922 139.869C150.147 138.95 151.807 138.95 155.128 138.95H215.602C220.831 138.95 223.445 138.95 224.823 140.648C226.201 142.346 225.662 144.905 224.585 150.021L215.336 193.955C214.601 197.446 214.233 199.192 212.969 200.218C211.705 201.244 209.921 201.244 206.352 201.244H128.558C131.949 197.555 131.949 193.867 135.341 182.801C137.774 174.863 143.35 155.744 146.307 145.573Z" fill="#B9DDFF" fill-opacity="0.6"/>
<path d="M155.128 139.256H215.602C218.226 139.256 220.16 139.257 221.613 139.465C223.057 139.673 223.966 140.078 224.585 140.841C225.205 141.604 225.414 142.577 225.319 144.033C225.224 145.497 224.826 147.391 224.285 149.958L215.036 193.892C214.667 195.645 214.395 196.933 214.061 197.912C213.729 198.884 213.347 199.517 212.776 199.98C212.205 200.443 211.506 200.687 210.488 200.812C209.46 200.937 208.144 200.938 206.352 200.938H129.233C130.678 199.21 131.464 197.415 132.242 194.878C132.595 193.727 132.948 192.417 133.359 190.889C133.444 190.573 133.532 190.248 133.622 189.912C134.152 187.954 134.787 185.653 135.633 182.891C138.068 174.95 143.644 155.828 146.6 145.658C147.066 144.057 147.408 142.881 147.785 141.989C148.158 141.104 148.553 140.529 149.106 140.114C149.659 139.699 150.321 139.48 151.274 139.369C152.236 139.257 153.46 139.256 155.128 139.256Z" stroke="url(#paint1_linear_2585_1513)" stroke-width="0.611895"/>
</g>
<path d="M138.393 122.802H151.508C153.183 122.802 154.542 124.16 154.542 125.836C154.542 127.511 153.183 128.87 151.508 128.87H138.393C136.718 128.87 135.36 127.511 135.36 125.836C135.36 124.16 136.718 122.802 138.393 122.802Z" fill="url(#paint2_linear_2585_1513)" fill-opacity="0.9" stroke="url(#paint3_linear_2585_1513)" stroke-width="0.489516"/>
<defs>
<filter id="filter0_d_2585_1513" x="0.696743" y="0.799442" width="362.653" height="362.653" filterUnits="userSpaceOnUse" color-interpolation-filters="sRGB">
<feFlood flood-opacity="0" result="BackgroundImageFix"/>
<feColorMatrix in="SourceAlpha" type="matrix" values="0 0 0 0 0 0 0 0 0 0 0 0 0 0 0 0 0 0 127 0" result="hardAlpha"/>
<feOffset dx="8.05051" dy="24.1515"/>
<feGaussianBlur stdDeviation="44.7251"/>
<feComposite in2="hardAlpha" operator="out"/>
<feColorMatrix type="matrix" values="0 0 0 0 0.0846354 0 0 0 0 0.203125 0 0 0 0 0.3125 0 0 0 0.1 0"/>
<feBlend mode="normal" in2="BackgroundImageFix" result="effect1_dropShadow_2585_1513"/>
<feBlend mode="normal" in="SourceGraphic" in2="effect1_dropShadow_2585_1513" result="shape"/>
</filter>
<filter id="filter1_b_2585_1513" x="115.443" y="125.836" width="123.318" height="88.522" filterUnits="userSpaceOnUse" color-interpolation-filters="sRGB">
<feFlood flood-opacity="0" result="BackgroundImageFix"/>
<feGaussianBlur in="BackgroundImageFix" stdDeviation="6.55719"/>
<feComposite in2="SourceAlpha" operator="in" result="effect1_backgroundBlur_2585_1513"/>
<feBlend mode="normal" in="SourceGraphic" in2="effect1_backgroundBlur_2585_1513" result="shape"/>
</filter>
<linearGradient id="paint0_linear_2585_1513" x1="148.481" y1="134.647" x2="217.748" y2="160.3" gradientUnits="userSpaceOnUse">
<stop stop-color="#7FC0FB"/>
<stop offset="1" stop-color="#4088F4"/>
</linearGradient>
<linearGradient id="paint1_linear_2585_1513" x1="123.64" y1="143.4" x2="158.408" y2="227.242" gradientUnits="userSpaceOnUse">
<stop stop-color="white"/>
<stop offset="0.765625" stop-color="white" stop-opacity="0"/>
</linearGradient>
<linearGradient id="paint2_linear_2585_1513" x1="133.62" y1="122.119" x2="160.543" y2="130.074" gradientUnits="userSpaceOnUse">
<stop stop-color="white"/>
<stop offset="1" stop-color="white" stop-opacity="0"/>
</linearGradient>
<linearGradient id="paint3_linear_2585_1513" x1="131.784" y1="123.955" x2="144.951" y2="129.114" gradientUnits="userSpaceOnUse">
<stop stop-color="white"/>
<stop offset="1" stop-color="white" stop-opacity="0"/>
</linearGradient>
</defs>
</svg>
