<svg width="364" height="364" viewBox="0 0 364 364" fill="none" xmlns="http://www.w3.org/2000/svg">
<g filter="url(#filter0_d_2531_1392)">
<path d="M218.539 66.2823L129.787 66.0983C103.604 66.044 82.3349 87.2255 82.2806 113.408L82.0966 202.16C82.0423 228.343 103.224 249.613 129.407 249.667L218.158 249.851C244.341 249.905 265.611 228.724 265.665 202.541L265.849 113.789C265.904 87.6061 244.722 66.3366 218.539 66.2823Z" fill="white"/>
</g>
<path fill-rule="evenodd" clip-rule="evenodd" d="M161.368 114.581C161.248 115.337 161.248 116.239 161.248 118.044C161.248 118.581 161.248 118.998 161.255 119.34H156.93C148.859 119.34 144.823 119.34 141.817 121.075C139.847 122.212 138.212 123.848 137.075 125.817C135.34 128.823 135.34 132.859 135.34 140.931C135.34 144.966 135.34 146.984 136.207 148.487C136.776 149.472 137.593 150.29 138.578 150.858C140.081 151.726 142.099 151.726 146.135 151.726H202.271C206.306 151.726 208.324 151.726 209.827 150.858C210.812 150.29 211.63 149.472 212.198 148.487C213.066 146.984 213.066 144.966 213.066 140.931C213.066 132.859 213.066 128.823 211.33 125.817C210.193 123.848 208.558 122.212 206.589 121.075C203.583 119.34 199.547 119.34 191.475 119.34H187.15C187.157 118.998 187.157 118.581 187.157 118.044C187.157 116.239 187.157 115.337 187.037 114.581C186.379 110.424 183.118 107.163 178.961 106.505C178.206 106.385 177.303 106.385 175.498 106.385H172.907C171.102 106.385 170.199 106.385 169.444 106.505C165.287 107.163 162.026 110.424 161.368 114.581Z" fill="url(#paint0_linear_2531_1392)"/>
<path d="M140.369 162.462C138.035 148.458 136.868 141.456 140.748 136.875C144.629 132.294 151.728 132.294 165.925 132.294H182.483C196.68 132.294 203.778 132.294 207.659 136.875C211.54 141.456 210.373 148.458 208.039 162.462L203.721 188.371C201.997 198.711 201.136 203.881 197.512 206.951C193.888 210.02 188.647 210.02 178.164 210.02H170.243C159.761 210.02 154.519 210.02 150.896 206.951C147.272 203.881 146.41 198.711 144.687 188.371L140.369 162.462Z" fill="#FFB7B5" fill-opacity="0.6"/>
<path d="M140.669 162.412C139.501 155.401 138.631 150.175 138.533 146.128C138.435 142.089 139.109 139.282 140.981 137.073C142.852 134.864 145.51 133.737 149.51 133.17C153.518 132.601 158.816 132.6 165.924 132.6H182.482C189.59 132.6 194.888 132.601 198.896 133.17C202.895 133.737 205.553 134.864 207.425 137.073C209.296 139.282 209.97 142.089 209.873 146.128C209.775 150.175 208.905 155.401 207.736 162.412L203.418 188.321C202.555 193.498 201.912 197.354 201.035 200.3C200.16 203.238 199.063 205.235 197.313 206.717C195.564 208.199 193.413 208.953 190.371 209.333C187.321 209.714 183.412 209.715 178.163 209.715H170.242C164.993 209.715 161.084 209.714 158.034 209.333C154.992 208.953 152.842 208.199 151.092 206.717C149.343 205.235 148.245 203.238 147.371 200.3C146.493 197.354 145.85 193.498 144.987 188.321L140.669 162.412Z" stroke="url(#paint1_linear_2531_1392)" stroke-width="0.611895"/>
<path d="M161.545 187.767C161.545 189.457 162.915 190.827 164.605 190.827C166.294 190.827 167.664 189.457 167.664 187.767V160.844C167.664 159.154 166.294 157.785 164.605 157.785C162.915 157.785 161.545 159.154 161.545 160.844V187.767Z" fill="url(#paint2_linear_2531_1392)" fill-opacity="0.9"/>
<path d="M161.792 187.767C161.792 189.322 163.053 190.582 164.607 190.582C166.162 190.582 167.422 189.322 167.422 187.767V160.844C167.422 159.289 166.162 158.029 164.607 158.029C163.053 158.029 161.792 159.289 161.792 160.844V187.767Z" stroke="url(#paint3_linear_2531_1392)" stroke-width="0.489516"/>
<path d="M179.903 187.156C179.903 189.183 181.547 190.827 183.575 190.827C185.602 190.827 187.246 189.183 187.246 187.156V161.456C187.246 159.428 185.602 157.785 183.575 157.785C181.547 157.785 179.903 159.428 179.903 161.456V187.156Z" fill="url(#paint4_linear_2531_1392)" fill-opacity="0.9"/>
<path d="M180.147 187.155C180.147 189.048 181.681 190.582 183.573 190.582C185.466 190.582 187 189.048 187 187.155V161.456C187 159.563 185.466 158.029 183.573 158.029C181.681 158.029 180.147 159.563 180.147 161.456V187.155Z" stroke="url(#paint5_linear_2531_1392)" stroke-width="0.489516"/>
<defs>
<filter id="filter0_d_2531_1392" x="0.697964" y="0.799442" width="362.65" height="362.653" filterUnits="userSpaceOnUse" color-interpolation-filters="sRGB">
<feFlood flood-opacity="0" result="BackgroundImageFix"/>
<feColorMatrix in="SourceAlpha" type="matrix" values="0 0 0 0 0 0 0 0 0 0 0 0 0 0 0 0 0 0 127 0" result="hardAlpha"/>
<feOffset dx="8.05051" dy="24.1515"/>
<feGaussianBlur stdDeviation="44.7251"/>
<feComposite in2="hardAlpha" operator="out"/>
<feColorMatrix type="matrix" values="0 0 0 0 0.0846354 0 0 0 0 0.203125 0 0 0 0 0.3125 0 0 0 0.1 0"/>
<feBlend mode="normal" in2="BackgroundImageFix" result="effect1_dropShadow_2531_1392"/>
<feBlend mode="normal" in="SourceGraphic" in2="effect1_dropShadow_2531_1392" result="shape"/>
</filter>
<linearGradient id="paint0_linear_2531_1392" x1="127.221" y1="129.089" x2="187.991" y2="169.66" gradientUnits="userSpaceOnUse">
<stop stop-color="#FF6161"/>
<stop offset="1" stop-color="#F52828"/>
</linearGradient>
<linearGradient id="paint1_linear_2531_1392" x1="131.453" y1="137.846" x2="187.641" y2="223.66" gradientUnits="userSpaceOnUse">
<stop stop-color="white"/>
<stop offset="0.765625" stop-color="white" stop-opacity="0"/>
</linearGradient>
<linearGradient id="paint2_linear_2531_1392" x1="159.556" y1="191.181" x2="164.146" y2="164.662" gradientUnits="userSpaceOnUse">
<stop stop-color="white" stop-opacity="0"/>
<stop offset="0.979167" stop-color="white"/>
</linearGradient>
<linearGradient id="paint3_linear_2531_1392" x1="164.118" y1="190.337" x2="164.118" y2="157.295" gradientUnits="userSpaceOnUse">
<stop stop-color="white" stop-opacity="0"/>
<stop offset="1" stop-color="white"/>
</linearGradient>
<linearGradient id="paint4_linear_2531_1392" x1="174.399" y1="194.727" x2="179.833" y2="162.641" gradientUnits="userSpaceOnUse">
<stop stop-color="white" stop-opacity="0"/>
<stop offset="0.979167" stop-color="white"/>
</linearGradient>
<linearGradient id="paint5_linear_2531_1392" x1="183.084" y1="190.337" x2="183.084" y2="157.295" gradientUnits="userSpaceOnUse">
<stop stop-color="white" stop-opacity="0"/>
<stop offset="1" stop-color="white"/>
</linearGradient>
</defs>
</svg>
