<svg xmlns="http://www.w3.org/2000/svg" xmlns:xlink="http://www.w3.org/1999/xlink" width="200" height="200" viewBox="0 0 200 200">
  <defs>
    <clipPath id="clip-Tamamlandı_İkon">
      <rect width="200" height="200"/>
    </clipPath>
  </defs>
  <g id="Tamamlandı_İkon" data-name="Tamamlandı İkon" clip-path="url(#clip-Tamamlandı_İkon)">
    <g id="Group_5612" data-name="Group 5612">
      <circle id="Ellipse_460" data-name="Ellipse 460" cx="90.583" cy="90.583" r="90.583" transform="translate(5.696 7.697)" fill="#fff"/>
      <g id="Page-1" transform="translate(0)">
        <g id="_06-Eğitim-Detay-v8---07" data-name="06-Eğitim-Detay-v8---07">
          <g id="Group-12">
            <g id="Group-9">
              <g id="Group-8">
                <g id="_2" data-name="2">
                  <g id="Durumlar">
                    <g id="Group-10">
                      <path id="Devam" d="M99.73,199.461c54.558,0,99.73-45.172,99.73-99.73C199.461,45.27,154.191,0,99.633,0,45.172,0,0,45.27,0,99.73,0,154.289,45.27,199.461,99.73,199.461Zm0-16.622A83.109,83.109,0,1,1,182.839,99.73,82.708,82.708,0,0,1,99.73,182.839Z" transform="translate(0)" fill="#3dcb79"/>
                      <path id="Oval-4-Copy" d="M62.53,94.731a62.544,62.544,0,0,0,8.3-31.238A62.833,62.833,0,0,0,8,.66" transform="translate(122.957 5.036)" fill="none"/>
                    </g>
                    <path id="Tamamlandı" d="M100,200c54.706,0,100-45.294,100-100C200,45.392,154.608,0,99.9,0,45.294,0,0,45.392,0,100,0,154.706,45.392,200,100,200ZM86.569,150.294c-3.333,0-5.98-1.471-8.725-4.8l-28.333-34.9a10.654,10.654,0,0,1-2.353-6.373A8.035,8.035,0,0,1,55.2,96.078c2.745,0,5.2,1.078,7.451,4.118L86.078,130.49l45.588-73.039c1.863-3.039,4.412-4.51,7.059-4.51,4.314,0,8.431,2.843,8.431,7.549,0,2.157-1.274,4.51-2.451,6.471L94.8,145.49C92.647,148.725,89.9,150.294,86.569,150.294Z" transform="translate(0)" fill="#3dcb79"/>
                  </g>
                </g>
              </g>
            </g>
          </g>
        </g>
      </g>
    </g>
  </g>
</svg>
